# This file uses centimeters as units for non-parametric coordinates.

g default
v -1.566036 3.370524 -0.011751
v -1.566036 2.958296 -0.011751
v 1.532049 3.370524 -0.011751
v 1.532049 2.958296 -0.011751
v 1.532049 3.370524 -0.539915
v 1.532049 2.958296 -0.539915
v -1.566036 3.370524 -0.539915
v -1.566036 2.958296 -0.539915
v -0.315813 3.152908 -0.011751
v -0.315813 3.565135 -0.011751
v -0.315813 3.565135 -0.539915
v -0.315813 3.152908 -0.539915
v 0.210783 3.152908 -0.011751
v 0.210783 3.565135 -0.011751
v 0.210783 3.565135 -0.539915
v 0.210783 3.152908 -0.539915
v 0.748995 3.093839 -0.011751
v 0.748995 3.506067 -0.011751
v 0.748995 3.506067 -0.539915
v 0.748995 3.093839 -0.539915
v -0.857899 3.093839 -0.011751
v -0.857899 3.506067 -0.011751
v -0.857899 3.506067 -0.539915
v -0.857899 3.093839 -0.539915
v 0.960772 0.000000 -0.084225
v 1.345802 0.000000 -0.084225
v 0.960772 3.057360 -0.084225
v 1.345802 3.057360 -0.084225
v 0.960772 3.057360 -0.469256
v 1.345802 3.057360 -0.469256
v 0.960772 0.000000 -0.469256
v 1.345802 0.000000 -0.469256
v -1.374617 0.000000 -0.084225
v -0.989584 0.000000 -0.084225
v -1.374617 3.057360 -0.084225
v -0.989584 3.057360 -0.084225
v -1.374617 3.057360 -0.469256
v -0.989584 3.057360 -0.469256
v -1.374617 0.000000 -0.469256
v -0.989584 0.000000 -0.469256
vt 0.396308 0.104003
vt 0.394208 0.090734
vt 0.418250 0.091116
vt 0.419769 0.104582
vt 0.497360 0.104096
vt 0.499310 0.090775
vt 0.516553 0.093344
vt 0.514538 0.106755
vt 0.420096 0.060223
vt 0.418365 0.073640
vt 0.394465 0.073646
vt 0.396771 0.060498
vt 0.379215 0.106928
vt 0.376958 0.093527
vt 0.395733 0.121370
vt 0.419339 0.121983
vt 0.437242 0.104914
vt 0.436709 0.091173
vt 0.454595 0.091235
vt 0.454074 0.104843
vt 0.437091 0.122301
vt 0.454223 0.122264
vt 0.453962 0.059911
vt 0.454536 0.073687
vt 0.436747 0.073642
vt 0.437336 0.060042
vt 0.472911 0.091103
vt 0.471452 0.104563
vt 0.471822 0.121995
vt 0.471107 0.060229
vt 0.472771 0.073655
vt 0.497812 0.121496
vt 0.496979 0.060382
vt 0.499164 0.073609
vt 0.879735 0.614957
vt 0.879701 0.602273
vt 0.980423 0.601997
vt 0.980457 0.614682
vt 0.993107 0.601962
vt 0.993142 0.614647
vt 0.980492 0.627366
vt 0.980527 0.640051
vt 0.879805 0.640326
vt 0.879770 0.627642
vt 0.867051 0.614992
vt 0.867016 0.602308
vt 0.879666 0.589588
vt 0.980388 0.589313
vt 0.640263 0.551693
vt 0.640229 0.539009
vt 0.740951 0.538733
vt 0.740986 0.551417
vt 0.753635 0.538698
vt 0.753670 0.551383
vt 0.741020 0.564102
vt 0.741055 0.576786
vt 0.640333 0.577062
vt 0.640298 0.564378
vt 0.627579 0.551728
vt 0.627544 0.539043
vt 0.640194 0.526324
vt 0.740916 0.526048
vn 0.000000 0.000000 1.000000
vn 0.000000 0.000000 1.000000
vn 0.000000 0.000000 1.000000
vn 0.000000 0.000000 1.000000
vn 1.000000 0.000000 0.000000
vn 1.000000 0.000000 0.000000
vn 1.000000 0.000000 0.000000
vn 1.000000 0.000000 0.000000
vn 0.000000 0.000000 -1.000000
vn 0.000000 0.000000 -1.000000
vn -0.000000 0.000000 -1.000000
vn -0.000000 0.000000 -1.000000
vn -1.000000 0.000000 0.000000
vn -1.000000 0.000000 0.000000
vn -1.000000 0.000000 0.000000
vn -1.000000 0.000000 0.000000
vn 0.187995 -0.982170 0.000000
vn 0.187995 -0.982170 0.000000
vn 0.153809 -0.988101 0.000000
vn 0.153809 -0.988101 0.000000
vn -0.187995 0.982170 0.000000
vn -0.187995 0.982170 0.000000
vn -0.153809 0.988101 0.000000
vn -0.153809 0.988101 0.000000
vn 0.000000 0.000000 1.000000
vn 0.000000 0.000000 1.000000
vn 0.000000 0.000000 1.000000
vn 0.000000 0.000000 1.000000
vn -0.055188 0.998476 0.000000
vn -0.055188 0.998476 0.000000
vn 0.055388 0.998465 0.000000
vn 0.055388 0.998465 0.000000
vn 0.000000 0.000000 -1.000000
vn 0.000000 0.000000 -1.000000
vn 0.000000 0.000000 -1.000000
vn 0.000000 0.000000 -1.000000
vn 0.055188 -0.998476 0.000000
vn 0.055188 -0.998476 0.000000
vn -0.055388 -0.998465 0.000000
vn -0.055388 -0.998465 0.000000
vn 0.000000 0.000000 1.000000
vn 0.000000 0.000000 1.000000
vn 0.000000 0.000000 1.000000
vn 0.000000 0.000000 1.000000
vn 0.055388 0.998465 0.000000
vn 0.055388 0.998465 0.000000
vn 0.145720 0.989326 0.000000
vn 0.145720 0.989326 0.000000
vn 0.000000 0.000000 -1.000000
vn 0.000000 0.000000 -1.000000
vn 0.000000 0.000000 -1.000000
vn 0.000000 0.000000 -1.000000
vn -0.055388 -0.998465 0.000000
vn -0.055388 -0.998465 0.000000
vn -0.145720 -0.989326 0.000000
vn -0.145720 -0.989326 0.000000
vn 0.000000 0.000000 1.000000
vn 0.000000 0.000000 1.000000
vn 0.000000 0.000000 1.000000
vn 0.000000 0.000000 1.000000
vn 0.145720 0.989326 0.000000
vn 0.145720 0.989326 0.000000
vn 0.170559 0.985348 0.000000
vn 0.170559 0.985348 0.000000
vn 0.000000 0.000000 -1.000000
vn 0.000000 0.000000 -1.000000
vn 0.000000 0.000000 -1.000000
vn 0.000000 0.000000 -1.000000
vn -0.145720 -0.989326 0.000000
vn -0.145720 -0.989326 0.000000
vn -0.170559 -0.985348 0.000000
vn -0.170559 -0.985348 0.000000
vn 0.000000 0.000000 1.000000
vn 0.000000 0.000000 1.000000
vn 0.000000 0.000000 1.000000
vn 0.000000 0.000000 1.000000
vn -0.153809 0.988101 0.000000
vn -0.153809 0.988101 0.000000
vn -0.055188 0.998476 0.000000
vn -0.055188 0.998476 0.000000
vn 0.000000 0.000000 -1.000000
vn 0.000000 0.000000 -1.000000
vn 0.000000 0.000000 -1.000000
vn 0.000000 0.000000 -1.000000
vn 0.153809 -0.988101 0.000000
vn 0.153809 -0.988101 0.000000
vn 0.055188 -0.998476 0.000000
vn 0.055188 -0.998476 0.000000
vn 0.000000 0.000000 1.000000
vn 0.000000 0.000000 1.000000
vn 0.000000 0.000000 1.000000
vn 0.000000 0.000000 1.000000
vn 0.000000 1.000000 0.000000
vn 0.000000 1.000000 0.000000
vn 0.000000 1.000000 0.000000
vn 0.000000 1.000000 0.000000
vn 0.000000 0.000000 -1.000000
vn 0.000000 0.000000 -1.000000
vn 0.000000 0.000000 -1.000000
vn 0.000000 0.000000 -1.000000
vn 0.000000 -1.000000 0.000000
vn 0.000000 -1.000000 0.000000
vn 0.000000 -1.000000 0.000000
vn 0.000000 -1.000000 0.000000
vn 1.000000 0.000000 0.000000
vn 1.000000 0.000000 0.000000
vn 1.000000 0.000000 0.000000
vn 1.000000 0.000000 0.000000
vn -1.000000 0.000000 0.000000
vn -1.000000 0.000000 0.000000
vn -1.000000 0.000000 0.000000
vn -1.000000 0.000000 0.000000
vn 0.000000 0.000000 1.000000
vn 0.000000 0.000000 1.000000
vn 0.000000 0.000000 1.000000
vn 0.000000 0.000000 1.000000
vn 0.000000 1.000000 0.000000
vn 0.000000 1.000000 0.000000
vn 0.000000 1.000000 0.000000
vn 0.000000 1.000000 0.000000
vn 0.000000 0.000000 -1.000000
vn 0.000000 0.000000 -1.000000
vn 0.000000 0.000000 -1.000000
vn 0.000000 0.000000 -1.000000
vn 0.000000 -1.000000 0.000000
vn 0.000000 -1.000000 0.000000
vn 0.000000 -1.000000 0.000000
vn 0.000000 -1.000000 0.000000
vn 1.000000 0.000000 0.000000
vn 1.000000 0.000000 0.000000
vn 1.000000 0.000000 0.000000
vn 1.000000 0.000000 0.000000
vn -1.000000 0.000000 0.000000
vn -1.000000 0.000000 0.000000
vn -1.000000 0.000000 0.000000
vn -1.000000 0.000000 0.000000
s off
g WoodDoorway
f 1/1/1 2/2/2 21/3/3 22/4/4
f 3/5/5 4/6/6 6/7/7 5/8/8
f 23/9/9 24/10/10 8/11/11 7/12/12
f 7/13/13 8/14/14 2/2/15 1/1/16
f 2/2/17 8/11/18 24/10/19 21/3/20
f 7/15/21 1/1/22 22/4/23 23/16/24
f 10/17/25 9/18/26 13/19/27 14/20/28
f 11/21/29 10/17/30 14/20/31 15/22/32
f 15/23/33 16/24/34 12/25/35 11/26/36
f 9/18/37 12/25/38 16/24/39 13/19/40
f 14/20/41 13/19/42 17/27/43 18/28/44
f 15/22/45 14/20/46 18/28/47 19/29/48
f 19/30/49 20/31/50 16/24/51 15/23/52
f 13/19/53 16/24/54 20/31/55 17/27/56
f 18/28/57 17/27/58 4/6/59 3/5/60
f 19/29/61 18/28/62 3/5/63 5/32/64
f 5/33/65 6/34/66 20/31/67 19/30/68
f 17/27/69 20/31/70 6/34/71 4/6/72
f 22/4/73 21/3/74 9/18/75 10/17/76
f 23/16/77 22/4/78 10/17/79 11/21/80
f 11/26/81 12/25/82 24/10/83 23/9/84
f 21/3/85 24/10/86 12/25/87 9/18/88
f 25/35/89 26/36/90 28/37/91 27/38/92
f 27/38/93 28/37/94 30/39/95 29/40/96
f 29/41/97 30/42/98 32/43/99 31/44/100
f 31/45/101 32/46/102 26/36/103 25/35/104
f 26/36/105 32/47/106 30/48/107 28/37/108
f 31/44/109 25/35/110 27/38/111 29/41/112
f 33/49/113 34/50/114 36/51/115 35/52/116
f 35/52/117 36/51/118 38/53/119 37/54/120
f 37/55/121 38/56/122 40/57/123 39/58/124
f 39/59/125 40/60/126 34/50/127 33/49/128
f 34/50/129 40/61/130 38/62/131 36/51/132
f 39/58/133 33/49/134 35/52/135 37/55/136
